<svg xmlns="http://www.w3.org/2000/svg" width="142.621" height="36.249" viewBox="0 0 142.621 36.249">
    <defs>
        <linearGradient id="a" x1="-.086" y1="-.12" x2="1.12" y2="1.436" gradientUnits="objectBoundingBox">
            <stop offset="0" stop-color="#004eff"/>
            <stop offset="1" stop-color="#00e5a8"/>
        </linearGradient>
    </defs>
    <g data-name="Component 1 – 1">
        <text transform="translate(92.621 22.902)" style="fill:#0e0f0f;font-size:19px;font-family:TitilliumWeb-Bold,Titillium Web;font-weight:700"><tspan x="-49.21" y="0">SphereHunt</tspan></text>
        <path data-name="Union 1" d="M16.994 34.8c-.409-.237-10.058-5.918-13.288-14.431a1.285 1.285 0 0 1 2.4-.906c2.451 6.459 9.376 11.326 11.531 12.719C20.179 30.536 29.344 24.06 30 15.851l-.651.649a1.283 1.283 0 1 1-1.817-1.812l2.7-2.694a1.548 1.548 0 0 1 2.181 0l2.7 2.694A1.283 1.283 0 0 1 33.3 16.5l-.719-.717c-.661 10.966-13.727 18.682-14.3 19.013l-.647.375zM9.441 14.922a8.2 8.2 0 1 1 8.2 8.173 8.187 8.187 0 0 1-8.2-8.173zm13.207 3.919a6.3 6.3 0 0 0 1.367-3.918 6.373 6.373 0 0 0-12.746 0 6.3 6.3 0 0 0 1.281 3.8 5.276 5.276 0 0 1 5.028-3.123 5.247 5.247 0 0 1 5.069 3.241zM3.079 16.318l-2.7-2.695a1.283 1.283 0 0 1 1.817-1.811l.678.675a14.987 14.987 0 0 1 28.163-4.234 1.284 1.284 0 0 1-2.3 1.146 12.417 12.417 0 0 0-23.252 3.073l.662-.659a1.283 1.283 0 0 1 1.817 1.811l-2.7 2.695a1.546 1.546 0 0 1-2.181 0zm12.08-4.044a2.483 2.483 0 1 1 2.482 2.475 2.481 2.481 0 0 1-2.482-2.475z" transform="translate(.5 .5)" style="stroke:transparent;fill:url(#a)"/>
    </g>
</svg>
