<?xml version="1.0" encoding="utf-8"?>
<!-- Generator: Adobe Illustrator 19.0.0, SVG Export Plug-In . SVG Version: 6.00 Build 0)  -->
<svg version="1.1" id="Layer_1" xmlns="http://www.w3.org/2000/svg" xmlns:xlink="http://www.w3.org/1999/xlink" x="0px" y="0px"
	 viewBox="-23.1 12.8 36.3 36.2" style="enable-background:new -23.1 12.8 36.3 36.2;" xml:space="preserve">
<style type="text/css">
	.st0{fill:url(#SVGID_1_);}
</style>
<g>
	
		<linearGradient id="SVGID_1_" gradientUnits="userSpaceOnUse" x1="-51.1799" y1="61.6339" x2="-49.9739" y2="60.0779" gradientTransform="matrix(35.4234 0 0 -35.169 1790.5386 2173.9746)">
		<stop  offset="0" style="stop-color:#004EFF"/>
		<stop  offset="1" style="stop-color:#00E5A8"/>
	</linearGradient>
	<path class="st0" d="M-5.9,48.1c-0.4-0.2-10.1-5.9-13.3-14.4c-0.2-0.7,0.2-1.4,0.8-1.6c0.6-0.2,1.3,0.1,1.6,0.7
		c2.5,6.5,9.4,11.3,11.5,12.7c2.5-1.6,11.7-8.1,12.4-16.3l-0.7,0.6c-0.5,0.5-1.3,0.5-1.8,0c-0.5-0.5-0.5-1.3,0-1.8l2.7-2.7
		c0.6-0.6,1.6-0.6,2.2,0l2.7,2.7c0.5,0.5,0.4,1.3-0.1,1.8c-0.5,0.4-1.2,0.4-1.7,0L9.7,29C9.1,40-4,47.7-4.6,48l-0.6,0.4L-5.9,48.1z
		 M-13.4,28.2c0-4.5,3.6-8.2,8.2-8.2c4.5,0,8.2,3.6,8.2,8.2c0,4.5-3.6,8.2-8.2,8.2c0,0,0,0,0,0C-9.7,36.4-13.4,32.7-13.4,28.2z
		 M-0.2,32.1c0.9-1.1,1.4-2.5,1.4-3.9c0-3.5-2.9-6.4-6.4-6.4c-3.5,0-6.4,2.9-6.4,6.4c0,1.4,0.5,2.7,1.3,3.8c0.9-2,2.9-3.2,5-3.1
		C-3.1,28.8-1.1,30.1-0.2,32.1L-0.2,32.1z M-19.8,29.6l-2.7-2.7c-0.5-0.5-0.5-1.3,0-1.8c0.5-0.5,1.3-0.5,1.8,0l0.7,0.7
		c1.4-8.2,9.1-13.7,17.3-12.3c4.7,0.8,8.7,3.8,10.9,8c0.3,0.6,0.1,1.4-0.6,1.7s-1.4,0.1-1.7-0.6c-3.1-6.1-10.5-8.6-16.7-5.5
		c-3.4,1.7-5.8,4.9-6.6,8.6l0.7-0.7c0.5-0.5,1.3-0.5,1.8,0c0.5,0.5,0.5,1.3,0,1.8l-2.7,2.7C-18.2,30.2-19.2,30.2-19.8,29.6
		L-19.8,29.6z M-7.7,25.5c0-1.4,1.1-2.5,2.5-2.5c1.4,0,2.5,1.1,2.5,2.5c0,1.4-1.1,2.5-2.5,2.5c0,0,0,0,0,0
		C-6.6,28-7.7,26.9-7.7,25.5z"/>
</g>
</svg>
