<svg xmlns="http://www.w3.org/2000/svg" width="30.5" height="30.5" viewBox="0 0 30.5 30.5">
    <defs>
        <style>
            .cls-1{fill:#282c2e}
        </style>
    </defs>
    <g id="Group_66524" data-name="Group 66524" transform="translate(-363.594 -540.289)">
        <path id="Path_13615" data-name="Path 13615" class="cls-1" d="M370.59 553.356a2.25 2.25 0 1 0 2.25 2.25 2.253 2.253 0 0 0-2.25-2.25zm0 3.243a.993.993 0 1 1 .994-.993 1 1 0 0 1-.994.994z"/>
        <path id="Path_13616" data-name="Path 13616" class="cls-1" d="M385.094 540.289a9.01 9.01 0 0 0-9 9h-9.75a2.752 2.752 0 0 0-2.75 2.75v16a2.753 2.753 0 0 0 2.75 2.75h16a2.754 2.754 0 0 0 2.75-2.75v-9.75a9 9 0 0 0 0-18zm-1.5 27.75a1.252 1.252 0 0 1-1.25 1.25h-14l10.375-10.376 4.879 4.878zm0-6.369-4.349-4.348a.749.749 0 0 0-1.06 0l-11.945 11.946a1.242 1.242 0 0 1-1.146-1.229v-16a1.25 1.25 0 0 1 1.25-1.25h9.885a9.009 9.009 0 0 0 7.365 7.364zm1.5-4.881a7.5 7.5 0 1 1 7.5-7.5 7.489 7.489 0 0 1-7.5 7.5z"/>
        <path id="Path_13617" data-name="Path 13617" class="cls-1" d="M389.094 548.539h-3.25v-3.25a.75.75 0 0 0-1.5 0v3.25h-3.25a.75.75 0 0 0 0 1.5h3.125c.043.04.085.081.125.124v3.126a.75.75 0 0 0 1.5 0v-3.25h3.25a.75.75 0 0 0 0-1.5z"/>
    </g>
</svg>
