<svg xmlns="http://www.w3.org/2000/svg" width="30.106" height="21.906" viewBox="0 0 30.106 21.906">
    <g data-name="Group 66424">
        <path data-name="Path 11467" d="M23.524 88.556h-6.459v-6.527H19.2a.668.668 0 0 0 .541-1.058l-4.152-5.746a.662.662 0 0 0-1.077 0l-4.152 5.746a.666.666 0 0 0 .541 1.058h2.135v6.527H5.8A6.47 6.47 0 0 1 0 82.085a6.128 6.128 0 0 1 3.039-5.29 4.109 4.109 0 0 1-.252-1.433 4.167 4.167 0 0 1 4.171-4.172 4.1 4.1 0 0 1 1.427.252A8.35 8.35 0 0 1 24.25 74.2a7.264 7.264 0 0 1-.726 14.358z" transform="translate(0 -66.65)" style="fill:#cdd6e2"/>
    </g>
</svg>
