<svg xmlns="http://www.w3.org/2000/svg" width="228.175" height="209.938" viewBox="0 0 228.175 209.938">
    <defs>
        <style>
            .cls-1,.cls-7{fill:#257ffa}.cls-2,.cls-3{fill:#fff}.cls-12,.cls-3,.cls-4,.cls-5,.cls-7{stroke:#263238}.cls-3,.cls-4,.cls-5,.cls-7{stroke-linecap:round;stroke-linejoin:round}.cls-4{fill:none}.cls-5,.cls-6{fill:#263238}.cls-12{stroke-miterlimit:10;fill:#d6e7ff}
        </style>
    </defs>
    <g id="Under_construction-bro" data-name="Under construction-bro" transform="translate(-8.232 -19.87)">
        <g id="freepik--background-simple--inject-1" transform="translate(8.232 27.409)">
            <path id="Path_13796" data-name="Path 13796" class="cls-1" d="M78.676 228.287a88.64 88.64 0 0 0 6.815 6.452h102.777c11.333-10.774 22.061-26.239 31.461-47.615 0 0 16.648-42.151 12.773-79.1s-28.145-66.147-62.522-72.365-64.934 27.884-103.3 39.706S.205 118.872 10.3 161.373s38.3 35.187 68.376 66.914z" transform="translate(-8.232 -34.908)"/>
        </g>
        <g id="freepik--Plants--inject-1" transform="translate(12.059 70.505)">
            <path id="Path_13797" data-name="Path 13797" class="cls-2" d="M363.591 156.264c1.5.652 5.152.568 5.152.568s-.787-2.394-.852-2.539c-.806-1.677-3.34-4.449-5.408-4.192a2.464 2.464 0 0 0-1.975 3.088 5.125 5.125 0 0 0 3.083 3.075z" transform="translate(-200.193 -139.53)"/>
            <path id="Path_13798" data-name="Path 13798" class="cls-2" d="M440.831 154.448c.028.023.661-2.427.685-2.585.256-1.863-.331-5.557-2.208-6.461a2.464 2.464 0 0 0-3.354 1.486 5.144 5.144 0 0 0 .89 4.244c.899 1.368 3.983 3.316 3.987 3.316z" transform="translate(-240.447 -136.913)"/>
            <path id="Path_13799" data-name="Path 13799" class="cls-2" d="M411.8 131.714c-2.073-.224-4.532 2.613-5.292 4.313-.065.149-.824 2.562-.787 2.562h.047c-.391.466-.806.932-1.253 1.463-.806.992-1.714 2.124-2.618 3.424a43.4 43.4 0 0 0-2.716 4.327 32.065 32.065 0 0 0-2.329 5.226.265.265 0 0 0 0 .065c0-.61 0-2.329-.033-2.45-.242-1.863-1.789-5.268-3.838-5.646a2.459 2.459 0 0 0-2.841 2.329 5.118 5.118 0 0 0 1.98 3.862c1.169 1.043 4.411 2.054 4.658 2.133a44.245 44.245 0 0 0-1.374 5.66 72.195 72.195 0 0 0-.512 3.377 8.5 8.5 0 0 0-.028-1.067c-.242-1.863-1.789-5.268-3.834-5.646a2.464 2.464 0 0 0-2.846 2.329 5.118 5.118 0 0 0 1.98 3.862 16.359 16.359 0 0 0 4.532 2.087l-.168 1.309c-.247 2.087-.489 4.192-.787 6.219-.1.717-.233 1.421-.359 2.124a6.547 6.547 0 0 0-.028-.932c-.238-1.863-1.784-5.268-3.834-5.646a2.459 2.459 0 0 0-2.841 2.329 5.117 5.117 0 0 0 1.98 3.857 15.382 15.382 0 0 0 4.4 2.045c-.154.717-.3 1.439-.466 2.129-.13.466-.228.932-.387 1.4s-.3.932-.443 1.369c-.312.862-.629 1.751-.96 2.581-.219.582-.443 1.127-.666 1.682.112-.713.3-2.115.307-2.236a9.564 9.564 0 0 0-1.286-4.658 3.061 3.061 0 0 0-.033-.545 2.464 2.464 0 0 0-3.014-2.091c-2.012.536-3.293 4.071-3.386 5.93 0 .107.065 1.3.126 2.059-.1-.438-.2-.866-.307-1.314-.21-.89-.466-1.775-.7-2.725l-.415-1.4c-.13-.466-.326-.932-.489-1.4a53.96 53.96 0 0 0-1.337-3.261 16.366 16.366 0 0 0 4.658-1.742 5.1 5.1 0 0 0 2.259-3.7 2.464 2.464 0 0 0-2.66-2.525c-2.073.224-3.871 3.526-4.248 5.348 0 .112-.144 1.449-.2 2.185-.3-.647-.592-1.295-.932-1.942-.932-1.863-1.924-3.727-2.907-5.59-.3-.568-.6-1.137-.894-1.71.279-.061 3.577-.824 4.816-1.779a5.153 5.153 0 0 0 2.259-3.7 2.464 2.464 0 0 0-2.66-2.525c-2.073.224-3.871 3.526-4.248 5.348-.028.135-.2 2.064-.219 2.553a76.782 76.782 0 0 1-1.863-3.778 43.146 43.146 0 0 1-2.031-5.25c.13-.033 3.573-.815 4.844-1.789a5.153 5.153 0 0 0 2.259-3.7 2.464 2.464 0 0 0-2.664-2.525c-2.068.224-3.866 3.526-4.244 5.348a52.876 52.876 0 0 0-.2 2.282h-.116A31.619 31.619 0 0 1 369.55 148a37.911 37.911 0 0 1-.2-3c.657-.079 3.652-.466 4.891-1.23a5.1 5.1 0 0 0 2.655-3.428 2.464 2.464 0 0 0-2.371-2.795c-2.082 0-4.23 3.079-4.8 4.849-.033.1-.242 1.109-.382 1.863 0-.438-.023-.89-.023-1.309 0-1.574.1-3.018.2-4.295.061-.727.13-1.4.2-1.994a16.51 16.51 0 0 0 3.75-3.331 5.11 5.11 0 0 0 .778-4.267 2.469 2.469 0 0 0-3.4-1.4c-1.863.932-2.329 4.658-2.031 6.521.028.158.727 2.59.759 2.571l.033-.028c-.079.592-.158 1.22-.233 1.91-.126 1.276-.261 2.72-.3 4.3a44.754 44.754 0 0 0 .126 5.124 31.675 31.675 0 0 0 .932 5.636v.065c-.326-.517-1.29-1.924-1.4-2.026-1.216-1.4-4.393-3.41-6.312-2.595a2.464 2.464 0 0 0-1.095 3.5 5.173 5.173 0 0 0 3.782 2.129c1.551.224 4.812-.722 5.073-.8a43.006 43.006 0 0 0 1.98 5.478c.466 1.039.932 2.073 1.43 3.1-.3-.438-.568-.824-.61-.876-1.216-1.4-4.4-3.41-6.312-2.595a2.464 2.464 0 0 0-1.095 3.5 5.149 5.149 0 0 0 3.778 2.129 16.533 16.533 0 0 0 4.933-.759c.2.4.387.787.582 1.178.932 1.863 1.9 3.759 2.795 5.622.307.657.587 1.318.871 1.975a22.574 22.574 0 0 0-.531-.755c-1.216-1.4-4.4-3.41-6.312-2.595a2.459 2.459 0 0 0-1.095 3.5 5.149 5.149 0 0 0 3.778 2.129 15.016 15.016 0 0 0 4.8-.722c.266.685.54 1.369.769 2.04.149.466.321.9.443 1.374s.256.932.387 1.4c.214.89.438 1.807.624 2.678.135.61.252 1.188.373 1.775-.3-.661-.932-1.938-.978-2.036-.992-1.574-3.829-4.039-5.851-3.522a2.459 2.459 0 0 0-1.607 3.293 5.114 5.114 0 0 0 3.41 2.678c1.467.466 4.7.037 5.124 0 .191.969.373 1.914.526 2.795.27 1.519.466 2.916.661 4.16h1.346c-.214-1.3-.466-2.795-.792-4.388-.2-.983-.419-2.026-.661-3.1a28 28 0 0 0 2.846-1.337 18.056 18.056 0 0 0 4.155 2.678c-.373.932-.745 1.8-1.109 2.627a129.512 129.512 0 0 1-1.593 3.522h1.453c.415-.932.848-1.947 1.29-3.042.382-.932.773-1.924 1.165-2.953.391.084 3.6.736 5.091.4a5.145 5.145 0 0 0 3.6-2.413 2.46 2.46 0 0 0-1.36-3.405c-1.975-.666-4.989 1.579-6.093 3.074a55.114 55.114 0 0 0-1.034 1.789c.158-.424.317-.829.466-1.267.317-.857.606-1.724.932-2.655.135-.466.275-.932.41-1.4s.247-.96.373-1.444c.27-1.127.466-2.282.68-3.452a16.128 16.128 0 0 0 4.83 1.113 5.1 5.1 0 0 0 3.927-1.863 2.464 2.464 0 0 0-.829-3.577c-1.863-.932-5.171.806-6.489 2.119a50.307 50.307 0 0 0-1.37 1.714c.107-.7.224-1.4.312-2.119.256-2.068.466-4.164.657-6.256.061-.643.13-1.281.2-1.919.27.1 3.438 1.281 5 1.169a5.075 5.075 0 0 0 3.927-1.863 2.459 2.459 0 0 0-.829-3.573c-1.863-.955-5.171.806-6.489 2.119-.1.1-1.3 1.607-1.593 2.008.149-1.4.307-2.795.526-4.192a43.411 43.411 0 0 1 1.2-5.5c.126.047 3.428 1.295 5.026 1.179a5.125 5.125 0 0 0 3.927-1.835 2.464 2.464 0 0 0-.829-3.577c-1.863-.932-5.171.806-6.489 2.119a55.652 55.652 0 0 0-1.43 1.793l-.107-.056a32.093 32.093 0 0 1 2.185-5.226c.466-.932.978-1.784 1.491-2.609a16.706 16.706 0 0 0 4.751 1.684 5.062 5.062 0 0 0 4.1-1.4 2.464 2.464 0 0 0-.429-3.643c-1.737-1.151-5.226.233-6.684 1.4-.079.061-.811.792-1.337 1.332.238-.368.466-.755.7-1.1.871-1.314 1.751-2.459 2.539-3.47.466-.573.871-1.081 1.272-1.551a16.181 16.181 0 0 0 4.966-.7 5.1 5.1 0 0 0 3-3.135 2.464 2.464 0 0 0-2.059-3.014z" transform="translate(-200.501 -127.426)"/>
            <path id="Path_13800" data-name="Path 13800" class="cls-2" d="M19.621 228.827c1.5.652 5.152.568 5.152.568s-.787-2.39-.852-2.539c-.806-1.677-3.34-4.449-5.408-4.169a2.464 2.464 0 0 0-1.975 3.088 5.148 5.148 0 0 0 3.083 3.052z" transform="translate(-16.449 -178.303)"/>
            <path id="Path_13801" data-name="Path 13801" class="cls-2" d="M96.861 226.992c.028 0 .661-2.432.685-2.59.256-1.863-.331-5.552-2.208-6.461a2.464 2.464 0 0 0-3.354 1.486 5.14 5.14 0 0 0 .89 4.244c.885 1.37 3.983 3.317 3.987 3.321z" transform="translate(-56.703 -175.663)"/>
            <path id="Path_13802" data-name="Path 13802" class="cls-2" d="M67.882 204.28c-2.073-.224-4.532 2.613-5.292 4.313-.065.149-.824 2.562-.787 2.562h.047c-.391.443-.806.932-1.253 1.463-.806 1-1.714 2.129-2.618 3.424a44.25 44.25 0 0 0-2.716 4.327 32.06 32.06 0 0 0-2.329 5.226.266.266 0 0 0 0 .065c0-.61 0-2.329-.033-2.45-.242-1.863-1.789-5.268-3.838-5.646a2.464 2.464 0 0 0-2.841 2.329 5.117 5.117 0 0 0 1.98 3.857c1.169 1.043 4.411 2.054 4.658 2.133a44.422 44.422 0 0 0-1.374 5.66 73.008 73.008 0 0 0-.512 3.377 8.5 8.5 0 0 0-.028-1.067c-.242-1.863-1.789-5.268-3.834-5.646a2.469 2.469 0 0 0-2.846 2.329 5.117 5.117 0 0 0 1.98 3.857 16.524 16.524 0 0 0 4.532 2.092l-.168 1.3c-.247 2.092-.466 4.192-.787 6.219-.1.717-.233 1.421-.359 2.129a6.509 6.509 0 0 0-.028-.932c-.238-1.863-1.784-5.268-3.834-5.646a2.464 2.464 0 0 0-2.841 2.329 5.117 5.117 0 0 0 1.98 3.857 15.383 15.383 0 0 0 4.4 2.045c-.154.722-.3 1.439-.466 2.129-.13.466-.228.932-.387 1.4s-.3.932-.443 1.369c-.312.862-.629 1.751-.96 2.581-.219.582-.466 1.132-.666 1.682.112-.713.3-2.115.307-2.236a9.549 9.549 0 0 0-1.286-4.658 3.084 3.084 0 0 0-.033-.55 2.469 2.469 0 0 0-3.014-2.092c-2.012.54-3.293 4.071-3.386 5.93 0 .107.065 1.3.126 2.059-.1-.438-.2-.866-.307-1.314-.21-.89-.466-1.775-.7-2.725l-.415-1.374c-.13-.466-.326-.932-.466-1.4a53.96 53.96 0 0 0-1.337-3.261 16.365 16.365 0 0 0 4.658-1.742 5.1 5.1 0 0 0 2.259-3.7 2.464 2.464 0 0 0-2.66-2.525c-2.073.228-3.871 3.526-4.248 5.348 0 .112-.144 1.449-.2 2.189-.3-.652-.592-1.3-.908-1.942-.932-1.863-1.924-3.727-2.907-5.59-.3-.573-.6-1.141-.894-1.71.279-.065 3.577-.829 4.817-1.779a5.171 5.171 0 0 0 2.259-3.7 2.464 2.464 0 0 0-2.66-2.525c-2.073.228-3.871 3.526-4.248 5.348-.028.14-.2 2.064-.219 2.553a76.782 76.782 0 0 1-1.863-3.778 42.855 42.855 0 0 1-2.031-5.25c.13-.028 3.573-.811 4.844-1.789a5.153 5.153 0 0 0 2.259-3.7 2.464 2.464 0 0 0-2.664-2.525c-2.068.224-3.866 3.526-4.244 5.348 0 .121-.158 1.588-.2 2.287h-.116a31.536 31.536 0 0 1-1.062-5.562 37.911 37.911 0 0 1-.2-3c.657-.079 3.652-.466 4.891-1.23a5.1 5.1 0 0 0 2.655-3.428 2.464 2.464 0 0 0-2.371-2.795c-2.082 0-4.23 3.079-4.8 4.849-.033.1-.242 1.109-.382 1.863v-1.309c0-1.574.1-3.018.2-4.295.061-.727.13-1.4.2-1.989a16.012 16.012 0 0 0 3.727-3.335c.717-1.216 1.318-2.9.778-4.262a2.469 2.469 0 0 0-3.4-1.4c-1.863.96-2.329 4.658-2.031 6.521.028.158.727 2.595.759 2.571l.033-.023a74.963 74.963 0 0 0-.233 1.905c-.126 1.281-.261 2.725-.3 4.3a44.756 44.756 0 0 0 .126 5.124 31.675 31.675 0 0 0 .932 5.636v.065c-.326-.517-1.29-1.924-1.4-2.026-1.216-1.4-4.393-3.405-6.312-2.595a2.464 2.464 0 0 0-1.095 3.5 5.158 5.158 0 0 0 3.782 2.129c1.551.224 4.812-.722 5.073-.8a43.209 43.209 0 0 0 1.98 5.473c.466 1.039.932 2.073 1.43 3.1-.3-.433-.568-.824-.61-.871-1.216-1.4-4.4-3.41-6.312-2.6a2.464 2.464 0 0 0-1.09 3.447 5.149 5.149 0 0 0 3.79 2.153 16.533 16.533 0 0 0 4.933-.759l.582 1.183c.932 1.863 1.9 3.754 2.795 5.618.307.661.587 1.318.871 1.975a30.488 30.488 0 0 0-.531-.755c-1.216-1.4-4.4-3.41-6.312-2.595a2.464 2.464 0 0 0-1.095 3.5 5.158 5.158 0 0 0 3.778 2.124 15.154 15.154 0 0 0 4.8-.717c.266.68.54 1.365.769 2.04.149.466.321.9.443 1.369s.256.932.387 1.4c.214.89.438 1.807.624 2.683.135.606.252 1.183.373 1.77-.3-.657-.932-1.933-.978-2.036-.992-1.574-3.829-4.034-5.851-3.522a2.464 2.464 0 0 0-1.607 3.3 5.1 5.1 0 0 0 3.41 2.674c1.467.466 4.7.037 5.124 0 .191.969.373 1.914.526 2.795.27 1.519.466 2.916.661 4.16h1.346c-.214-1.3-.466-2.795-.792-4.383-.2-.983-.419-2.031-.661-3.107a25.977 25.977 0 0 0 2.846-1.337 18.057 18.057 0 0 0 4.155 2.678c-.373.932-.745 1.8-1.109 2.627a124.172 124.172 0 0 1-1.593 3.522h1.439c.415-.932.848-1.947 1.29-3.042.382-.932.773-1.924 1.165-2.953.391.084 3.6.736 5.091.4a5.131 5.131 0 0 0 3.6-2.413 2.459 2.459 0 0 0-1.36-3.405c-1.975-.661-4.989 1.579-6.093 3.074a55.114 55.114 0 0 0-1.034 1.789c.158-.424.317-.829.466-1.267.317-.857.606-1.724.932-2.655.135-.466.275-.932.41-1.4s.247-.96.373-1.444c.27-1.127.466-2.282.68-3.452a16.128 16.128 0 0 0 4.83 1.113 5.136 5.136 0 0 0 3.927-1.84 2.46 2.46 0 0 0-.829-3.573c-1.863-.955-5.171.806-6.489 2.115a49.371 49.371 0 0 0-1.369 1.714c.107-.7.224-1.4.312-2.119.256-2.064.466-4.164.657-6.256.061-.643.13-1.281.2-1.919.27.1 3.438 1.281 5 1.169a5.125 5.125 0 0 0 3.927-1.835 2.464 2.464 0 0 0-.829-3.577c-1.863-.955-5.171.806-6.489 2.119-.1.1-1.3 1.607-1.593 2.008.149-1.4.307-2.795.526-4.192a43.579 43.579 0 0 1 1.2-5.5c.126.047 3.428 1.295 5.026 1.183a5.09 5.09 0 0 0 3.927-1.863 2.459 2.459 0 0 0-.829-3.573c-1.863-.955-5.171.8-6.489 2.115a62.05 62.05 0 0 0-1.43 1.793l-.107-.056a31.871 31.871 0 0 1 2.185-5.222c.466-.932.978-1.789 1.491-2.613a16.565 16.565 0 0 0 4.756 1.672 5.077 5.077 0 0 0 4.1-1.4 2.464 2.464 0 0 0-.429-3.643c-1.737-1.151-5.226.233-6.684 1.4-.079.065-.811.792-1.337 1.332.238-.368.466-.755.7-1.1.871-1.314 1.751-2.459 2.539-3.47.466-.568.871-1.076 1.272-1.547a16.061 16.061 0 0 0 4.966-.708 5.11 5.11 0 0 0 3-3.13 2.464 2.464 0 0 0-2.11-3.009z" transform="translate(-16.81 -166.203)"/>
        </g>
        <g id="freepik--Device--inject-1" transform="translate(9.056 100.804)">
            <path id="Path_13803" data-name="Path 13803" class="cls-3" d="M60.678 192.47h174.68a4.872 4.872 0 0 1 4.872 4.872v114.823H55.81V197.338a4.872 4.872 0 0 1 4.868-4.868z" transform="translate(-34.471 -192.47)"/>
            <path id="Rectangle_1954" data-name="Rectangle 1954" class="cls-4" transform="translate(28.82 9.349)" d="M0 0h169.444v95.757H0z"/>
            <path id="Rectangle_1955" data-name="Rectangle 1955" class="cls-5" transform="translate(50.597 113.933)" d="M0 0h126.734v6.242H0z"/>
            <path id="Rectangle_1956" data-name="Rectangle 1956" class="cls-3" transform="translate(50.597 116.938)" d="M0 0h126.734v3.237H0z"/>
            <path id="Path_13804" data-name="Path 13804" class="cls-5" d="M23.79 458.4s2.082 2.548 8.329 4.626h198.436s4.626-1.155 6.708-4.393z" transform="translate(-17.366 -334.526)"/>
            <rect id="Rectangle_1957" data-name="Rectangle 1957" class="cls-3" width="214.325" height="4.863" rx="1.89" transform="translate(6.004 119.318)"/>
            <path id="Path_13805" data-name="Path 13805" class="cls-3" d="M253.422 198.376a1.621 1.621 0 1 0-1.621 1.616 1.621 1.621 0 0 0 1.621-1.616z" transform="translate(-138.301 -194.756)"/>
            <path id="Line_78" data-name="Line 78" class="cls-4" transform="translate(0 128.499)" d="M0 0h226.851"/>
        </g>
        <g id="freepik--Sign--inject-1" transform="translate(84.387 119.824)">
            <path id="Path_13806" data-name="Path 13806" class="cls-5" d="M249.533 241.6a4.858 4.858 0 0 0 1.337-4.369l-3.051 3.046a.932.932 0 0 1-1.3 0l-2.534-2.534a.932.932 0 0 1 0-1.3l3.046-3.051a4.868 4.868 0 0 0-5.464 6.521l-7.872 7.691-.759-.759 1.239-1.239a.345.345 0 0 0 0-.466l-.96-.955a.335.335 0 0 0-.466 0l-.466.466-1.039-1.034.4-.4a.466.466 0 0 0 0-.638l-8.59-8.59a2.2 2.2 0 0 0-3.116 0l-.876.876a2.2 2.2 0 0 0 0 3.116l8.59 8.59a.466.466 0 0 0 .638 0l.4-.4 1.039 1.039-.466.466a.335.335 0 0 0 0 .466l.932.96a.345.345 0 0 0 .466 0l1.239-1.239.745.745-6.521 6.368a4.863 4.863 0 0 0-6.521 5.464l3.051-3.046a.932.932 0 0 1 1.3 0l2.534 2.534a.932.932 0 0 1 0 1.3l-3.046 3.051a4.868 4.868 0 0 0 5.464-6.521l6.521-6.363 8.9 8.9a1.826 1.826 0 0 0 .41 1.947l2.147 2.147 2.576-2.576-2.147-2.147a1.826 1.826 0 0 0-1.947-.41l-8.9-8.855 7.868-7.681a4.868 4.868 0 0 0 5.199-1.12z" transform="translate(-196.663 -233.302)"/>
            <path id="Path_13807" data-name="Path 13807" class="cls-6" d="M225.037 317.61c0 .932.368 1.477 1.2 1.477s1.183-.554 1.183-1.477v-7.83h1.071v7.774c0 1.551-.717 2.59-2.3 2.59s-2.282-1.039-2.282-2.59v-7.774h1.127z" transform="translate(-199.599 -274.156)"/>
            <path id="Path_13808" data-name="Path 13808" class="cls-6" d="M237.155 320.028h-1.025V309.78h1.449l2.371 7.406v-7.406h1.011v10.248H239.8l-2.641-8.282z" transform="translate(-206.127 -274.156)"/>
            <path id="Path_13809" data-name="Path 13809" class="cls-6" d="M251.408 309.78c1.593 0 2.329.969 2.329 2.548v5.166c0 1.565-.731 2.534-2.329 2.534H249V309.78zm0 9.2c.82 0 1.216-.508 1.216-1.449v-5.268c0-.932-.4-1.449-1.23-1.449h-1.23v8.166z" transform="translate(-213.002 -274.156)"/>
            <path id="Path_13810" data-name="Path 13810" class="cls-6" d="M265.1 314.317v1.025h-2.506v3.643h3.074v1.043h-4.218V309.78h4.216v1.034h-3.074v3.5z" transform="translate(-219.653 -274.156)"/>
            <path id="Path_13811" data-name="Path 13811" class="cls-6" d="M275.042 309.764c1.612 0 2.282.82 2.282 2.329v.834c0 1.127-.4 1.831-1.272 2.11.932.275 1.286 1.039 1.286 2.133v1.6a2.627 2.627 0 0 0 .2 1.23h-1.155a2.715 2.715 0 0 1-.191-1.248v-1.607c0-1.155-.54-1.523-1.491-1.523h-.801V320h-1.14v-10.25zm-.307 4.83c.932 0 1.449-.293 1.449-1.4v-1c0-.932-.335-1.4-1.183-1.4h-1.113v3.792z" transform="translate(-225.694 -274.14)"/>
            <path id="Path_13812" data-name="Path 13812" class="cls-6" d="M190 357.046v.932h-1.062v-.983c0-.932-.368-1.477-1.2-1.477s-1.2.554-1.2 1.477v5.405c0 .932.382 1.477 1.2 1.477s1.2-.554 1.2-1.477v-1.332h1.081v1.272c0 1.551-.731 2.576-2.329 2.576s-2.3-1.025-2.3-2.576v-5.3c0-1.551.731-2.576 2.3-2.576s2.31 1.031 2.31 2.582z" transform="translate(-179.022 -298.028)"/>
            <path id="Path_13813" data-name="Path 13813" class="cls-6" d="M197.32 357.046c0-1.565.778-2.576 2.329-2.576s2.357 1.011 2.357 2.576v5.3c0 1.551-.778 2.576-2.357 2.576s-2.329-1.025-2.329-2.576zm1.127 5.357c0 .932.4 1.477 1.216 1.477s1.216-.54 1.216-1.477v-5.417c0-.932-.382-1.477-1.216-1.477s-1.216.554-1.216 1.477z" transform="translate(-185.395 -298.028)"/>
            <path id="Path_13814" data-name="Path 13814" class="cls-6" d="M210.725 364.928H209.7V354.68h1.449l2.371 7.406v-7.406h1.011v10.248h-1.188l-2.618-8.282z" transform="translate(-192.008 -298.141)"/>
            <path id="Path_13815" data-name="Path 13815" class="cls-6" d="M226.812 357.062v.275h-1.085V357c0-.932-.349-1.463-1.169-1.463s-1.169.54-1.169 1.449c0 2.3 3.438 2.515 3.438 5.4 0 1.551-.745 2.562-2.329 2.562s-2.3-1.011-2.3-2.562v-.586h1.071v.643c0 .932.377 1.463 1.2 1.463s1.2-.54 1.2-1.463c0-2.283-3.424-2.5-3.424-5.385 0-1.584.731-2.562 2.269-2.562s2.298 1.004 2.298 2.566z" transform="translate(-198.686 -298.044)"/>
            <path id="Path_13816" data-name="Path 13816" class="cls-6" d="M235.3 364.933v-9.2h-1.89v-1.043h4.933v1.039h-1.887v9.2z" transform="translate(-204.674 -298.146)"/>
            <path id="Path_13817" data-name="Path 13817" class="cls-6" d="M247.952 354.663c1.607 0 2.283.82 2.283 2.329v.838a1.915 1.915 0 0 1-1.272 2.105c.932.28 1.286 1.039 1.286 2.138v1.584a2.548 2.548 0 0 0 .2 1.23H249.3a2.632 2.632 0 0 1-.191-1.244v-1.612c0-1.155-.54-1.519-1.5-1.519h-.8v4.374h-1.139V354.64zm-.293 4.83c.908 0 1.449-.293 1.449-1.4v-.983c0-.932-.335-1.4-1.188-1.4h-1.109v3.792z" transform="translate(-211.223 -298.119)"/>
            <path id="Path_13818" data-name="Path 13818" class="cls-6" d="M259.077 362.52c0 .932.363 1.477 1.2 1.477s1.188-.554 1.188-1.477v-7.83h1.067v7.77c0 1.551-.717 2.59-2.3 2.59s-2.282-1.039-2.282-2.59v-7.77h1.127z" transform="translate(-217.783 -298.146)"/>
            <path id="Path_13819" data-name="Path 13819" class="cls-6" d="M274.606 357.046v.932h-1.086v-.983c0-.932-.363-1.477-1.2-1.477s-1.2.554-1.2 1.477v5.405c0 .932.382 1.477 1.2 1.477s1.2-.554 1.2-1.477v-1.332h1.085v1.272c0 1.551-.731 2.576-2.329 2.576s-2.3-1.025-2.3-2.576v-5.3c0-1.551.731-2.576 2.3-2.576s2.33 1.031 2.33 2.582z" transform="translate(-224.209 -298.028)"/>
            <path id="Path_13820" data-name="Path 13820" class="cls-6" d="M283.2 364.933v-9.2h-1.86v-1.043h4.914v1.039h-1.863v9.2z" transform="translate(-230.278 -298.146)"/>
            <path id="Path_13821" data-name="Path 13821" class="cls-6" d="M294.691 354.69v10.248h-1.141V354.69z" transform="translate(-236.8 -298.146)"/>
            <path id="Path_13822" data-name="Path 13822" class="cls-6" d="M298.31 357.046c0-1.565.778-2.576 2.329-2.576s2.361 1.011 2.361 2.576v5.3c0 1.551-.778 2.576-2.357 2.576s-2.329-1.025-2.329-2.576zm1.127 5.357c0 .932.4 1.477 1.216 1.477s1.216-.54 1.216-1.477v-5.417c0-.932-.382-1.477-1.216-1.477s-1.216.554-1.216 1.477z" transform="translate(-239.343 -298.028)"/>
            <path id="Path_13823" data-name="Path 13823" class="cls-6" d="M311.715 364.928h-1.025V354.68h1.449l2.371 7.406v-7.406h1.011v10.248h-1.188l-2.618-8.282z" transform="translate(-245.956 -298.141)"/>
            <path id="Rectangle_1958" data-name="Rectangle 1958" class="cls-1" transform="translate(0 48.593)" d="M0 0h74.307v4.43H0z"/>
            <path id="Path_13824" data-name="Path 13824" class="cls-6" d="M225.526 337.62h-4.947l-2.539 4.425h4.947z" transform="translate(-196.464 -289.027)"/>
            <path id="Path_13825" data-name="Path 13825" class="cls-6" d="M328.612 342.537v-4l-2.292 4z" transform="translate(-254.305 -289.519)"/>
            <path id="Path_13826" data-name="Path 13826" class="cls-6" d="M247.181 337.62h-4.947l-2.534 4.425h4.947z" transform="translate(-208.034 -289.027)"/>
            <path id="Path_13827" data-name="Path 13827" class="cls-6" d="M203.866 337.62h-4.947l-2.539 4.425h4.952z" transform="translate(-184.893 -289.027)"/>
            <path id="Path_13828" data-name="Path 13828" class="cls-6" d="M174.73 342.045h4.947l2.539-4.425h-4.952z" transform="translate(-173.328 -289.027)"/>
            <path id="Path_13829" data-name="Path 13829" class="cls-6" d="M312.151 337.62H307.2l-2.534 4.425h4.947z" transform="translate(-242.74 -289.027)"/>
            <path id="Path_13830" data-name="Path 13830" class="cls-6" d="M268.836 337.62h-4.947l-2.539 4.425h4.95z" transform="translate(-219.599 -289.027)"/>
            <path id="Path_13831" data-name="Path 13831" class="cls-6" d="M290.5 337.62h-4.952l-2.534 4.425h4.947z" transform="translate(-231.17 -289.027)"/>
        </g>
        <g id="freepik--Cone--inject-1" transform="translate(31.88 176.632)">
            <path id="Path_13832" data-name="Path 13832" class="cls-7" d="M84.646 356.418 71.92 405.035h28.38l-12.724-48.617a1.5 1.5 0 0 0-2.93 0z" transform="translate(-65.902 -355.256)"/>
            <path id="Path_13833" data-name="Path 13833" class="cls-5" d="M71.92 411.463h23.123L83.481 367.29z" transform="translate(-65.902 -361.684)"/>
            <rect id="Rectangle_1959" data-name="Rectangle 1959" class="cls-7" width="39.128" height="3.964" rx="1.982" transform="translate(0 48.712)"/>
            <rect id="Rectangle_1960" data-name="Rectangle 1960" class="cls-5" width="27.013" height="3.964" rx="1.982" transform="translate(0 48.712)"/>
            <path id="Path_13834" data-name="Path 13834" class="cls-3" d="M82.82 410.832h18.227l-2.2-8.422H85.023z" transform="translate(-71.724 -380.445)"/>
            <path id="Path_13835" data-name="Path 13835" d="M82.82 410.832h12.973l-2.2-8.422h-8.57z" transform="translate(-71.724 -380.445)" style="fill:#bababa;stroke-linecap:round;stroke-linejoin:round;stroke:#263238"/>
        </g>
        <g id="freepik--Lamp--inject-1" transform="translate(103.835 20.87)">
            <circle id="Ellipse_912" data-name="Ellipse 912" class="cls-3" cx="4.085" cy="4.085" r="4.085" transform="rotate(-45 69.389 10.29)"/>
            <path id="Line_79" data-name="Line 79" transform="translate(18.94)" style="stroke-width:2px;fill:none;stroke-linecap:round;stroke-linejoin:round;stroke:#263238" d="M0 19.084V0"/>
            <path id="Line_80" data-name="Line 80" transform="translate(18.94 19.084)" style="stroke-miterlimit:10;stroke:gray;stroke-width:2px;fill:none" d="M0 12.605V0"/>
            <path id="Path_13836" data-name="Path 13836" d="m226.08 88.9-12.61 21.847h37.619L238.475 88.9z" transform="translate(-213.47 -57.211)" style="stroke-width:.973px;stroke-miterlimit:10;stroke:#263238;fill:#257ffa"/>
            <path id="Path_13837" data-name="Path 13837" class="cls-5" d="m231.748 88.9-10.038 21.847h29.942L241.614 88.9z" transform="translate(-217.872 -57.211)"/>
        </g>
        <g id="freepik--Shade--inject-1" transform="translate(30.394 74.406)">
            <path id="Path_13838" data-name="Path 13838" class="cls-12" d="M113.515 192.47H60.678a4.868 4.868 0 0 0-4.868 4.868v92.268z" transform="translate(-55.81 -166.072)"/>
            <path id="Path_13839" data-name="Path 13839" class="cls-12" d="M327.8 192.47h52.837a4.868 4.868 0 0 1 4.868 4.868v92.552z" transform="translate(-201.103 -166.072)"/>
            <path id="Line_81" data-name="Line 81" class="cls-4" transform="translate(0 26.398)" d="M57.705 0 0 97.15"/>
            <path id="Line_82" data-name="Line 82" class="cls-4" transform="translate(126.697 26.398)" d="m0 0 57.705 97.42"/>
            <path id="Path_13840" data-name="Path 13840" class="cls-4" d="M71.87 287.895V212.54h44.457" transform="translate(-64.389 -176.793)"/>
            <path id="Path_13841" data-name="Path 13841" class="cls-4" d="M339.91 212.54h44.583v75.737" transform="translate(-207.572 -176.793)"/>
            <path id="Path_13842" data-name="Path 13842" d="m248.682 162.2-15.637-26.4h-37.62l-15.735 26.4" transform="translate(-121.985 -135.8)" style="fill:rgba(255,255,255,.3);stroke-miterlimit:10;stroke:#263238"/>
        </g>
    </g>
</svg>
